<svg id="Layer_1" data-name="Layer 1" xmlns="http://www.w3.org/2000/svg" viewBox="0 0 74.29 74.21"><title>codepen</title><path d="M97.15,48.32l0-.14c0-.09,0-0.18-0.06-0.27L97,47.76c0-.08-0.05-0.16-0.08-0.23l-0.07-.16a2.33,2.33,0,0,0-.11-0.21L96.66,47l-0.14-.19-0.11-.14-0.16-.17-0.13-.12L96,46.23l-0.14-.11-0.05,0L61.82,23.5a3.19,3.19,0,0,0-3.54,0L24.34,46.08l-0.05,0-0.14.1L24,46.37l-0.13.13a0.88,0.88,0,0,0-.16.2l-0.11.14L23.43,47a0.2,0.2,0,0,1-.09.1l-0.11.21-0.07.16c0,0.08-.06.15-0.08,0.2l0,0.15c0,0.09,0,.18-0.06.27a0.5,0.5,0,0,1,0,.1,3,3,0,0,0,0,.42V71.78a0.56,0.56,0,0,1,0,.1,0.32,0.32,0,0,0,.1.27,0.13,0.13,0,0,0,.1.15,0.67,0.67,0,0,0,.1.2,0.14,0.14,0,0,0,.1.15,0.52,0.52,0,0,1,.1.21,0.33,0.33,0,0,1,.1.1,0.47,0.47,0,0,1,.1.19,0.2,0.2,0,0,1,.1.14,0.75,0.75,0,0,0,.2.2,0.19,0.19,0,0,1,.1.13,0.34,0.34,0,0,0,.2.15,0.2,0.2,0,0,1,.1.1l0.1,0L58.28,96.64a3.28,3.28,0,0,0,1.8.54,3.2,3.2,0,0,0,1.77-.54L95.79,74l0.05,0L96,73.87l0.18-.15,0.13-.12,0.16-.17,0.11-.14,0.14-.19,0.09-.15,0.11-.21L97,72.57c0-.08.06-0.16,0.08-0.23l0.05-.15c0-.09,0-0.18.06-0.27s0-.09,0-0.14a3.24,3.24,0,0,0,0-.42V48.74a1.09,1.09,0,0,0-.11-0.42h0ZM63.24,32.07l25,16.67L77.07,56.21,63.24,47V32.07Zm-6.38,0V47L43,56.21,31.85,48.74l25-16.67v0ZM29.3,54.71l8,5.34-8,5.34V54.71ZM56.86,88l-25-16.62L43,63.93l13.83,9.25V88ZM60,67.6L48.76,60,60,52.5,71.33,60ZM63.24,88V73.14l13.83-9.25,11.17,7.47ZM90.79,65.39l-8-5.34,8-5.34V65.39Z" transform="translate(-22.92 -22.96)"/></svg>