<svg id="Layer_1" data-name="Layer 1" xmlns="http://www.w3.org/2000/svg" viewBox="0 0 36.21 21.99"><defs><style>.cls-1{fill:#8f8f8f;}</style></defs><title>education</title><path class="cls-1" d="M316.68,298.66l-0.1-3.47,3.29-1.95-18.39-9.14-17.82,10.2,7.34,4,0.07,2.47v0.19l0.06,0a0.55,0.55,0,0,0-.12.32c0,1.21,5,2.06,11,1.88s10.92-1.31,10.89-2.52a0.57,0.57,0,0,0-.14-0.31l0.06,0v-0.19l-0.07-2.48,3.09-2,0.09,3.07A0.95,0.95,0,1,0,316.68,298.66ZM302,302.28c-5.37.16-9.74-.33-9.76-1.08s4.31-1.49,9.68-1.65,9.74,0.33,9.76,1.08S307.38,302.12,302,302.28Zm10.47-6.65c-0.74-.75-3.4-2.7-10.73-2.49s-9.87,2.32-10.57,3.11l0-.73s2-3.22,10.56-3.46,10.74,2.84,10.74,2.84Z" transform="translate(-283.66 -284.1)"/><path class="cls-1" d="M315.61,300.71l-0.24,5.38c1.1-1.82,2.07-1.18,2.07-1.18l-0.12-4.25C316.1,301.17,315.61,300.71,315.61,300.71Z" transform="translate(-283.66 -284.1)"/></svg>