<svg id="Layer_1" data-name="Layer 1" xmlns="http://www.w3.org/2000/svg" viewBox="0 0 511.31 506.03"><defs><style>.cls-1{fill:#fff;}</style></defs><title>trailseek</title><path class="cls-1" d="M676.53,550.67H165.21v-506H676.53v506ZM170.2,297.11c0.45,68.81,25.35,130.58,77.6,180.38S363.34,550,435.32,545.86C501,542,556.9,515.43,601.77,467.39c48.16-51.56,70.46-113.43,66.81-183.77C665,215.07,637.19,157.05,586,111.37,529.53,61,462.76,40.79,387.82,49.89c-61.17,7.43-112.63,35-153.79,80.77C192.44,177,171.77,231.79,170.2,297.11Z" transform="translate(-165.21 -44.64)"/><path d="M170.2,297.11C171.77,231.79,192.44,177,234,130.66c41.15-45.82,92.62-73.35,153.79-80.77C462.76,40.79,529.53,61,586,111.37c51.22,45.68,79,103.7,82.61,172.25,3.66,70.34-18.65,132.21-66.81,183.77C556.9,515.43,501,542,435.32,545.86c-72,4.18-135.12-18.45-187.51-68.38S170.66,365.92,170.2,297.11Zm26.92-40.39,0.5,0.48c2.81-.95,5.7-1.71,8.41-2.89,4.14-1.82,8.24-3.78,12.21-5.94,5.56-3,11.1-6.14,16.45-9.53,4.17-2.64,8.11-5.67,12-8.68,4.88-3.75,9.64-7.65,14.45-11.5,5.52-4.41,11.06-8.8,16.54-13.25,5.22-4.24,10.38-8.55,15.57-12.82,4.58-3.76,9.2-7.47,13.74-11.28,5.13-4.3,12.34-4.47,17.11.21,3.39,3.32,6.59,6.83,9.83,10.3,5.41,5.8,10.75,11.65,16.17,17.45,3.91,4.18,7.89,8.29,11.83,12.45,4.84,5.11,9.93,9.82,17,11.89a11.86,11.86,0,0,0,8.48-.7,31.68,31.68,0,0,0,10.38-7.82c3.64-4.12,7.34-8.17,11-12.24,4.26-4.68,8.51-9.36,12.82-14,4-4.33,8.11-8.62,12.26-12.85s8.46-3,11.61-1a69.72,69.72,0,0,1,7.32,6.12c4.16,3.67,8.3,7.35,12.38,11.1,4.41,4.06,8.72,8.23,13.13,12.3,6.18,5.7,12.4,11.35,18.6,17,2.85,2.6,4.62,2.8,6.93,1q10.76-8.49,21.58-16.9a6.9,6.9,0,0,1,8.38-.15,78,78,0,0,1,7.11,6.19c3.41,3.27,6.66,6.7,10,10q5.91,5.79,11.92,11.47c3.77,3.58,7.41,7.32,11.42,10.59A155.6,155.6,0,0,0,587.18,263c3.33,2.19,6.86,4.09,10.37,6a38,38,0,0,0,5.35,2.37c2,0.74,4.17,1.27,6.27,1.88l5.79,1.65c1.71,0.49,3.45.92,5.13,1.52q5.2,1.86,10.34,3.88c3.46,1.35,6.87,2.82,10.33,4.17,1.46,0.57,3,1,4.89,1.59-0.14-2.5-.18-4.57-0.39-6.64q-0.72-7.1-1.59-14.19c-0.35-2.87-.79-5.74-1.29-8.6-0.45-2.61-1-5.21-1.57-7.8q-0.68-3.12-1.49-6.2c-0.77-2.9-1.59-5.78-2.41-8.67s-1.49-5.52-2.39-8.22c-0.79-2.39-1.79-4.7-2.68-7.05-1.41-3.71-2.66-7.5-4.26-11.13-1.83-4.17-3.85-8.26-6-12.29-3.07-5.8-6.09-11.65-9.53-17.22s-7.12-10.76-11-15.92c-4.1-5.48-8.39-10.84-12.86-16A155.54,155.54,0,0,0,577,134.58c-5-4.69-10.13-9.26-15.41-13.63-4.39-3.63-9-7-13.64-10.3-2.93-2.11-6-4-9.08-5.91q-6-3.65-12.08-7.09c-2.44-1.37-5-2.54-7.51-3.77-2.67-1.31-5.33-2.64-8-3.85-2.15-1-4.37-1.76-6.55-2.63s-4.55-1.87-6.85-2.73q-3.71-1.39-7.47-2.63c-2-.67-4-1.25-6.07-1.85s-3.85-1.14-5.8-1.63c-2.12-.53-4.28-0.94-6.41-1.44-2.71-.63-5.39-1.37-8.11-1.9-3.13-.6-6.29-1-9.45-1.51-4.36-.65-8.71-1.52-13.1-1.83-6.27-.45-12.56-0.54-18.85-0.67-8.15-.17-16.31-0.33-24.43.76-1.32.18-2.69-.05-4,0.14-3.31.5-6.59,1.17-9.9,1.71-4.34.7-8.71,1.27-13,2-2,.36-4,1.09-6,1.63-1.67.45-3.35,0.85-5,1.31-3,.83-6,1.65-9,2.57-2.34.72-4.63,1.57-6.95,2.37s-4.68,1.53-7,2.43c-3,1.18-6,2.45-8.89,3.76-3.23,1.45-6.45,2.92-9.61,4.51-2.85,1.43-5.63,3-8.39,4.59-5,2.87-10,5.61-14.75,8.79-5.49,3.67-10.81,7.61-16,11.7a193,193,0,0,0-15.34,13c-5.9,5.74-11.4,11.91-16.91,18a185.41,185.41,0,0,0-16.89,22.34c-2,3.09-4,6.19-6,9.33-1.18,1.89-2.27,3.84-3.32,5.8q-2.14,4-4.15,8c-1.23,2.46-2.44,4.94-3.57,7.44q-2.11,4.68-4.07,9.43c-0.92,2.22-1.77,4.47-2.59,6.74-0.56,1.56-1,3.17-1.52,4.75-0.93,2.84-2,5.63-2.78,8.51-1,3.5-1.73,7.06-2.55,10.6-0.4,1.74-.72,3.5-1.11,5.25C198.33,251.44,197.72,254.08,197.12,256.71Zm-3.56,49.41c0.53,7.2.85,12.31,1.3,17.41,0.23,2.54.64,5.07,1.09,7.58q1.26,7,2.68,14c0.66,3.22,1.39,6.42,2.22,9.6s1.76,6.17,2.68,9.25c0.69,2.31,1.37,4.63,2.15,6.91,0.94,2.75,2,5.45,3,8.21s1.16,3,4.18,3c1.81,0,3.61.18,5.41,0.15,9-.13,17.91-0.3,26.86-0.44,3.49-.05,7,0,10.48-0.08,4.28-.14,8.56-0.47,12.84-0.65,2.44-.11,4.9,0,7.34-0.15,6.36-.46,12.71-1.2,19.07-1.49,4.55-.21,9.08-0.13,13.63-0.75s9.16-.63,13.75-0.86c6.68-.34,13.36-0.6,20-1,2.85-.15,5.68-0.57,8.52-0.7,7-.31,14.08-0.53,21.11-0.78,6.45-.23,12.9-0.58,19.35-0.65,7.75-.08,15.5.06,23.24,0.17,14.51,0.21,29,.39,43.54.72,8.9,0.21,17.79.61,26.68,1.05,8,0.39,15.91.92,23.85,1.45,5.8,0.39,11.6.84,17.39,1.32,7.36,0.61,14.71,1.27,22.06,1.9,0.93,0.08,1.87,0,2.79.15,5.93,0.73,11.86,1.49,17.78,2.24,2,0.25,3.92.46,5.88,0.72q10,1.35,20,2.73c4.93,0.69,9.85,1.45,14.78,2.15s9.77,1.42,14.67,2a2.28,2.28,0,0,0,1.87-.91c1.22-2.41,2.33-4.88,3.31-7.39,1.49-3.78,3-7.56,4.22-11.43,1.73-5.42,3.24-10.92,4.82-16.4,0.46-1.6.86-3.22,1.23-4.85,0.74-3.21,1.5-6.41,2.16-9.64,0.54-2.61,1-5.23,1.4-7.86,0.68-4.3,1.54-8.58,1.91-12.91,0.51-6,.65-12,0.95-17.95a3,3,0,0,1,.14-1c0.73-1.69-.22-2.26-1.63-2.72a30,30,0,0,1-5.94-2.25c-3.6-2.11-7-4.51-10.49-6.84a60.4,60.4,0,0,0-10.41-6.12c-3.22-1.33-6.3-3-9.48-4.38q-7.14-3.17-14.34-6.19c-2.59-1.09-5.24-2-7.85-3.07-3-1.2-6.11-2.32-9.09-3.64a43.91,43.91,0,0,1-7.62-3.86c-5.7-4-11.65-6.2-18.69-4.23a7.26,7.26,0,0,1-3.79-.07c-4.58-1.33-9.15-2.72-13.64-4.35a31.25,31.25,0,0,0-11.2-2.11c-7.21.13-14.42,0.5-21.63,0.72-2.77.09-5.56,0.1-8.33,0a1.84,1.84,0,0,1-1.82-2.44,28.47,28.47,0,0,1,1.59-5.23c1.22-2.88.48-5.64-.85-8a47.14,47.14,0,0,0-5.68-7.45,12.4,12.4,0,0,0-7.94-4.58,36.56,36.56,0,0,0-14.72,1.48A50.37,50.37,0,0,1,448.6,228c-6.34,0-11.44-2-15.29-7.17a5.13,5.13,0,0,0-3.55-1.78c-3.44-.08-6.84-0.44-10.33.7a33.68,33.68,0,0,0-9.81,4.85c-4.48,3.35-8.63,7.15-13.08,10.54-3.94,3-7.35,7-12.61,7.86a10.23,10.23,0,0,1-4.83,0,42.75,42.75,0,0,1-7.63-3.75c-4.4-2.65-8.65-5.57-13-8.27a22.37,22.37,0,0,0-10.37-3.52c-1.5-.09-3,0.53-4.56.83a14.15,14.15,0,0,0-7.1,3.61c-2.48,2.32-3.15,5.57-4.1,8.57-1.8,5.67-5.82,9-10.85,11.51a6.09,6.09,0,0,1-3.41.86c-2.7-.5-4.16-2.69-5-5.06-1.23-3.65-2-7.45-3.18-11.13a18.12,18.12,0,0,0-2.3-4.75c-1.26-1.84-3.38-1.24-5-.77-3.79,1.12-7.21-.49-10.76-1-2.33-.36-4.58-1.41-6.91-1.59-6.48-.49-13-1-19.26,1.51-1.11.44-2.29,0.7-3.4,1.13-2,.78-4.06,1.5-6,2.46-2.95,1.47-5.79,3.14-8.7,4.68-3.48,1.84-7,3.6-10.47,5.44-3.63,1.92-7.22,3.91-10.84,5.85-4.07,2.18-8.18,4.32-12.24,6.53-2.81,1.53-5.56,3.17-8.35,4.73-3,1.7-6.13,3.34-9.15,5.08a2.2,2.2,0,0,0-1,1.43c-0.72,7.28-1.59,14.55-2,21.85C193.31,295.5,193.57,301.86,193.57,306.12Zm21.14,85.64a5.38,5.38,0,0,0,.21,1.35c1.71,3.55,3.31,7.16,5.21,10.61,2.45,4.45,5,8.83,7.77,13.11,3.47,5.43,7,10.84,10.81,16A148.38,148.38,0,0,0,249.4,445.8c5.61,6,11.49,11.83,17.33,17.65a91.7,91.7,0,0,0,7,6.32c4.74,3.84,9.49,7.67,14.41,11.27,4.34,3.17,8.86,6.11,13.41,9,3.42,2.16,7,4.09,10.54,6,2.48,1.37,5,2.65,7.55,3.9s5.16,2.48,7.77,3.63c3.16,1.39,6.33,2.75,9.54,4,2.28,0.91,4.62,1.68,6.94,2.5,2.75,1,5.48,2,8.28,2.89,3.14,1,6.37,1.64,9.52,2.6,3,0.91,3,1,3.55-2.19,0.06-.34.1-0.69,0.16-1,0.54-3.67.73-7.43,1.72-11,1.42-5.08,3.34-10,5.2-15a53.25,53.25,0,0,1,3.5-7.6,75.42,75.42,0,0,1,5.37-8.12,89,89,0,0,1,8-9.64c5.47-5.44,11.38-10.44,16.87-15.87a66.26,66.26,0,0,0,8-9.61,33.31,33.31,0,0,0,3.58-8,33.88,33.88,0,0,0,2.06-8.36,45.54,45.54,0,0,0-.53-13.18,31.53,31.53,0,0,0-7.42-14.86c-4.26-4.7-9.58-7.38-16.18-7-5.28.3-10.57,0.41-15.86,0.56-3.5.1-7,0-10.49,0.21-7.78.42-15.54,1.1-23.33,1.41-4.8.2-9.59,0-14.4,0.68s-9.75.65-14.63,0.91q-9.57.51-19.15,1c-1.16.06-2.33,0.07-3.49,0.15-6.73.45-13.46,0.94-20.2,1.35-3.6.22-7.2,0.27-10.8,0.43-2.14.1-4.28,0.31-6.42,0.37-4.3.13-8.6,0.16-12.9,0.28-2.9.09-5.79,0.4-8.69,0.39-6.24,0-12.47-.15-18.71-0.23C215.95,391.65,215.39,391.72,214.7,391.76Zm203.77-7.11a0.91,0.91,0,0,0,0,.31c4.93,6.22,9.95,12.37,14.77,18.68a31,31,0,0,1,5.43,12.86,67.21,67.21,0,0,1,.89,11.63c0.06,2.53-.37,5.07-0.55,7.62s-0.33,5-.45,7.49c-0.34,6.73-.83,13.48,1.57,20,1.45,3.93,2.7,7.95,4.39,11.77,2.09,4.72,4.5,9.3,6.83,13.91s4.64,9.16,7.07,13.69a65.56,65.56,0,0,0,10.58,14,2.63,2.63,0,0,0,2,.63c2.33-.37,4.62-0.92,6.92-1.43,1.07-.24,2.14-0.51,3.19-0.85q5.63-1.83,11.24-3.72c3.31-1.11,6.66-2.1,9.89-3.41,4.33-1.76,8.59-3.72,12.82-5.71,3.9-1.84,7.79-3.72,11.57-5.79q6.47-3.55,12.71-7.5c4.62-2.91,9.21-5.88,13.63-9.08,4.11-3,8.12-6.13,11.94-9.48,6-5.27,12.08-10.52,17.65-16.24,5.18-5.32,9.8-11.18,14.54-16.91,2.6-3.14,5-6.43,7.4-9.76s4.49-6.64,6.59-10c2.76-4.47,5.4-9,8.06-13.55,0.55-.94,1-2,1.53-3.17-3.3-.51-6.27-1-9.24-1.43-4.47-.71-8.92-1.51-13.4-2.12s-9.12-1-13.68-1.55l-0.35,0c-5-.74-10.09-1.5-15.14-2.21-2.13-.3-4.26-0.53-6.4-0.73-3-.29-6-0.45-9-0.79-5.65-.64-11.29-1.46-17-2-5.89-.59-11.81-1-17.71-1.46-5.27-.42-10.54-0.88-15.81-1.21-4.19-.26-8.39-0.29-12.58-0.5-7.09-.36-14.18-0.84-21.27-1.18-7.5-.36-15-0.77-22.5-0.9-9-.15-18.05,0-27.08,0A4.34,4.34,0,0,0,418.48,384.66ZM428,409.21l-0.53,0c-0.06.78-.18,1.56-0.18,2.34,0,5.8-.18,11.53-2.18,17.14A64.7,64.7,0,0,1,420.61,439a58.15,58.15,0,0,1-10.38,12.78c-3.12,3.05-6.61,5.73-9.83,8.69a79.23,79.23,0,0,0-12.76,14.14,147.66,147.66,0,0,0-7.92,13.63,75.06,75.06,0,0,0-3.53,9,49.34,49.34,0,0,0-3.27,14.12c0,0.45-.24.89-0.32,1.34a27.4,27.4,0,0,0-.56,4.14,2.15,2.15,0,0,0,1.08,1.69,45.65,45.65,0,0,0,6.1,1.34c3.43,0.52,6.89.94,10.34,1.34,5.54,0.65,11.06,1.44,16.62,1.82,5.08,0.34,10.19.3,15.29,0.27,4.7,0,9.41-.11,14.09-0.47,5-.38,10-1.1,15.06-1.7,2.88-.34,5.77-0.71,8.64-1.13,1.3-.19,1.63-1.08.8-2.1a105.64,105.64,0,0,1-13.37-21c-2.52-5.18-5.26-10.25-7.62-15.5a116.75,116.75,0,0,1-5.4-13.94,55.77,55.77,0,0,1-2.57-13.08c-0.28-5.49.34-11,.66-16.54,0.34-5.92.84-11.78-.08-17.75A37.82,37.82,0,0,0,428,409.21ZM276.17,215.94a6,6,0,0,0,1,1.71A24.47,24.47,0,0,0,291.56,223c2.8,0.12,5.64-.58,8.45-1,5.44-.73,10,1.07,14.19,4.48,3.84,3.16,4.79,7.79,6.4,12.1a16.54,16.54,0,0,0,1,1.93,7.11,7.11,0,0,0,1.45-.93c1.49-1.56,2.92-3.17,4.35-4.78a2.39,2.39,0,0,0,.43-0.94c0.85-3.1,1.55-6.26,2.59-9.3a25.42,25.42,0,0,1,2.68-5.15c1.76-2.82,5-3.45,7.71-4.8,1.37-.68,1.33-1.1.5-2.12-5.7-7-11.34-14-17.08-21a10.32,10.32,0,0,0-8.56-4c-3,0-5.45,1.38-7.94,2.47A61.65,61.65,0,0,0,292,199.38c-4.94,4.23-9.37,9.08-14,13.71A18.22,18.22,0,0,0,276.17,215.94Zm176.45,3.68a34,34,0,0,0,4-.42c2.13-.47,4.24-1.07,6.33-1.71a2.36,2.36,0,0,0,1.49-1.1,2.23,2.23,0,0,0-.51-1.84q-10.73-11.15-21.55-22.22c-1.51-1.55-2.73-1.62-4.13,0-3.88,4.59-7.68,9.24-11.46,13.91a1.26,1.26,0,0,0,.55,2.13c2,0.84,4.11,1.49,6.1,2.37a27.93,27.93,0,0,1,5.65,2.94C443.1,216.81,447.09,219.86,452.62,219.62Zm91.71,26.58a33.77,33.77,0,0,0,4.44-1.16c1.67-.67,2.06-1.9,1.14-2.88-5-5.33-10.08-10.67-15.18-15.94a8.46,8.46,0,0,0-11.86-.68c-4.24,3.82-8.3,7.86-12.32,11.92-0.66.67-1.32,2.29-1,2.83a6.5,6.5,0,0,0,3.18,2.34c1.09,0.38,2.42.07,3.64,0.07,5.06,0,10.13-.21,15.16.13,2.75,0.19,5.44,1.31,8.15,2C541.21,245.27,542.69,245.73,544.32,246.2Z" transform="translate(-165.21 -44.64)"/><path d="M557.28,303l16-33.89c2.14,0.75,4.15,1.4,6.12,2.16,1.35,0.52,1.44,1.95.58,3.69-1.08,2.19-2,4.47-2.94,6.71-1.38,3.19-2.8,6.37-4.11,9.59-0.9,2.22-1.65,4.51-2.48,6.76-0.9,2.46-1.84,4.92-2.72,7.39s-1.7,4.91-2.53,7.37a1.13,1.13,0,0,0,0,.69c1.14,3.16,2.32,6.3,3.46,9.47,0.47,1.3.81,2.63,1.26,3.94,1.29,3.72,2.64,7.42,3.9,11.15,0.83,2.45,1.5,4.94,2.3,7.4,0.74,2.29,1.57,4.54,2.33,6.82,0.56,1.68,1,3.39,1.62,5.06,0.76,2.2,1.56,4.4,2.37,6.58s1.82,4.58,2.58,6.92a1.81,1.81,0,0,1-.71,1.56,18.48,18.48,0,0,1-3.77,1.68,1.7,1.7,0,0,1-1.54-.57c-1.51-3.52-2.88-7.1-4.34-10.64s-3.1-7.25-4.61-10.89c-0.87-2.12-1.61-4.29-2.47-6.41-1.13-2.81-2.34-5.58-3.45-8.4-1.25-3.19-2.43-6.41-3.63-9.62-0.42-1.13-.77-2.28-1.22-3.4a1,1,0,0,0-.72-0.51,1.75,1.75,0,0,0-1,.84,31.61,31.61,0,0,0-1.38,6.44c-0.26,7.63-.13,15.27-0.44,22.89-0.2,4.93-.86,9.84-1.43,14.74a27.62,27.62,0,0,1-1.09,4.38,3.41,3.41,0,0,1-5.64,1.83,3.23,3.23,0,0,1-.59-2.23c0.09-5.94.29-11.88,0.37-17.83,0.16-11.36.25-22.72,0.41-34.09q0.31-21.94.69-43.88c0-.12,0-0.23,0-0.35,0.17-3.41.2-3.4,3.57-2.79a24.27,24.27,0,0,0,3.48.22,1.33,1.33,0,0,1,1.51,1.61q-0.31,12.23-.52,24.46c0,1,.12,2,0.18,3.05Z" transform="translate(-165.21 -44.64)"/><path d="M348.26,268.83a9.36,9.36,0,0,1,1,2.17c0.46,2.81.74,5.64,1.18,8.45,0.54,3.37,1.21,6.73,1.76,10.1,0.15,0.91,0,1.86.13,2.78,0.51,3.49,1.13,7,1.62,10.45,0.3,2.18.4,4.4,0.64,6.59,0.45,4.14,1,8.28,1.39,12.43,0.35,3.35.78,6.7,0.92,10.06q0.51,11.77.75,23.55c0.07,3.55-.18,7.1-0.24,10.66a1.34,1.34,0,0,1-1.6,1.53c-1.46,0-2.92,0-4.37.11a1.18,1.18,0,0,1-1.49-1.37c-0.18-5.11-.45-10.22-0.64-15.34-0.08-2.23-.69-3.24-2.86-3.7-3.56-.76-7.13-1.5-10.74-2-2-.27-2.73.61-3.28,2.55-1,3.33-2.05,6.62-3,9.95-0.55,1.88-1,3.78-1.44,5.69-0.47,2.29-1.13,2.87-3.43,2.46a17.52,17.52,0,0,1-3.32-1,1.26,1.26,0,0,1-.58-1.05c0.48-3.15,1-6.31,1.61-9.43,0.52-2.48,1.25-4.92,1.93-7.37,0.54-1.94,1.15-3.86,1.7-5.79,0.45-1.54.89-3.09,1.29-4.65,0.9-3.53,1.7-7.08,2.65-10.59,0.9-3.32,2-6.59,2.88-9.91,1-3.51,1.76-7.06,2.7-10.58,0.49-1.83,1.13-3.63,1.68-5.44,0.48-1.6.91-3.21,1.39-4.81,1.09-3.64,2.25-7.26,3.3-10.91,0.86-3,1.42-6.08,2.47-9a59.75,59.75,0,0,1,3.35-6.7ZM345.63,295l-0.37,0c-0.86,3.34-1.79,6.67-2.55,10-0.6,2.64-1,5.34-1.48,8-0.39,2-.83,4-1.3,5.93-0.58,2.46-1.25,4.9-1.82,7.37-0.7,3-1.21,6.1-2,9.09-0.69,2.57,0,4.26,2.43,4.4,2.73,0.16,5.47.16,8.2,0.06,2-.07,2.73-1.14,2.55-3.09-0.24-2.54-.51-5.08-0.71-7.63-0.12-1.51-.08-3-0.21-4.54-0.46-5.2-1-10.39-1.44-15.58-0.36-4.21-.63-8.44-1-12.65A10.18,10.18,0,0,0,345.63,295Z" transform="translate(-165.21 -44.64)"/><path d="M294,321.39a14,14,0,0,0-.35,2.1q-0.28,17.75-.53,35.5c0,2.1-.12,4.19-0.19,6.29a1.56,1.56,0,0,1-.1.85c-1.47,1.65-3.38.66-5.09,0.76-1.11.07-1.43-.81-1.42-1.8,0.07-4.08.15-8.16,0.21-12.24q0.26-17.75.51-35.51,0.34-22.3.71-44.6c0-2.46.46-2.77,2.94-3.29,5.09-1,9.89,1.46,12.47,6.15,3.45,6.27,4.22,13,3.48,19.83-0.38,3.44-1.84,6.76-2.86,10.12A39.5,39.5,0,0,0,304,328.5c1.26,4.35,2.16,8.79,3.32,13.16,1.12,4.22,2.44,8.4,3.55,12.62,0.88,3.34,1.57,6.73,2.34,10.09,0,0.06,0,.12,0,0.17,0.12,0.76.55,2,.3,2.18a12.47,12.47,0,0,1-3.2,1.14,6.73,6.73,0,0,1-1.39.1c-2.75.17-2.86,0-3.22-2.77a30.36,30.36,0,0,0-1-4c-0.85-3.1-1.75-6.19-2.53-9.31-0.84-3.36-1.56-6.75-2.36-10.12-0.32-1.33-.7-2.65-1-4l-4.32-16.36Zm-0.08-29.71h-0.37c0,4,0,8,0,12.06a5,5,0,0,0,.56,1.53,5.21,5.21,0,0,0,1.3-.88c2.41-3,4.2-6.4,4.07-10.39-0.09-2.64-.65-5.26-0.83-7.91a13,13,0,0,0-2.83-6.7,6.94,6.94,0,0,0-1.33-1.13,7.19,7.19,0,0,0-.55,1.87C293.91,284,293.94,287.83,293.94,291.67Z" transform="translate(-165.21 -44.64)"/><path d="M494.93,277.41a15.32,15.32,0,0,0-.18,1.63q-0.19,10.84-.36,21.68c-0.06,3.85-.15,7.69-0.2,11.54,0,2.08.5,2.64,2.63,2.74q2.62,0.13,5.24.15c1.07,0,1.67.39,1.58,1.54a1.45,1.45,0,0,0,0,.17c0.06,1.36.69,3.34,0,3.93-1.11,1-3,1.18-4.58,1.67a19.58,19.58,0,0,0-3.61,1.13,2.82,2.82,0,0,0-.91,2.06c-0.13,2.39-.08,4.78-0.12,7.17q-0.26,14.17-.54,28.33c0,0.29,0,.58,0,0.87,0,3.52.1,3.5,3.53,3.74s6.56,0.68,9.83,1.1a2,2,0,0,1,.85.87,0.91,0.91,0,0,1,0,.51q-0.14,2.51-.28,5c-2.22.29-4.44,0.75-6.67,0.84-4.58.19-9.18,0.12-13.77,0.28-2.53.09-3.05-.24-3-2.74q0.35-24.23.73-48.45c0.1-6.12.3-12.24,0.32-18.37,0-4.3-.28-8.61-0.29-12.91,0-5.65.14-11.3,0.2-16.94,0.05-5,5.81-7.36,9.38-5.71a63,63,0,0,0,7.68,2.57,2.5,2.5,0,0,1,1.93,2.7c0,1.48-1,1.74-2,1.9C500,276.79,497.56,277.07,494.93,277.41Z" transform="translate(-165.21 -44.64)"/><path d="M525.92,374.49c-3,.15-6,0.33-9.06.43-2.28.08-2.43-.09-2.4-2.29q0.37-26.4.76-52.79c0.13-8.74.34-17.48,0.32-26.22,0-5.41-.5-10.81-0.52-16.22a8.16,8.16,0,0,1,2.66-6.49,6.76,6.76,0,0,1,6.47-1.43,78.92,78.92,0,0,1,8.77,3.08,3.34,3.34,0,0,1,1.32,2.33,1.61,1.61,0,0,1-1.46,2c-2.07.24-4.14,0.62-6.22,0.7-1.53.06-2.17,0.51-2.19,2.14-0.1,11.13-.27,22.26-0.44,33.4,0,1.93,1.45,2.07,2.71,2.25a27.71,27.71,0,0,0,4.88.26,1.79,1.79,0,0,1,2.15,1.48c0.18,0.79.37,1.58,0.52,2.38,0.29,1.55-.23,2.27-1.93,2.56a46.44,46.44,0,0,0-6.84,1.92,1.91,1.91,0,0,0-.73,1.48c-0.13,3.73-.19,7.46-0.24,11.18-0.14,9.26-.26,18.53-0.44,27.79,0,1.34.5,1.68,1.72,1.78,3.71,0.28,7.42.63,11.11,1.07a2.35,2.35,0,0,1,1.29,1.28,3.48,3.48,0,0,1,.06,1.55c-0.11,3.7-.1,3.75-3.75,4.07-2.83.25-5.68,0.36-8.52,0.53v-0.25Z" transform="translate(-165.21 -44.64)"/><path d="M458.71,292.19a32.22,32.22,0,0,0,5.78,17.23c3.57,5.3,7.16,10.61,10.25,16.19a37.43,37.43,0,0,1,3.57,11,42.5,42.5,0,0,1,.44,13,34.26,34.26,0,0,1-3.93,12.93,18.85,18.85,0,0,1-22.51,9.64,5.13,5.13,0,0,1-3.13-3.11c-0.79-3.71.53-4.69,4.44-4.47,2,0.11,3.93.53,5.9,0.53,2.45,0,4.13-1.66,5.54-3.41a16.07,16.07,0,0,0,3.39-7.39A80.05,80.05,0,0,0,470,343.86a27.7,27.7,0,0,0-4.16-15.31c-3.34-5.58-7-11-10.27-16.6a47,47,0,0,1-4.54-10.55,36,36,0,0,1-.42-16.93,18.93,18.93,0,0,1,5.53-10.15,22.77,22.77,0,0,1,4.1-3.41,9.54,9.54,0,0,1,8.73-1c2.08,0.81,4.22,1.52,5.29,3.51a5.26,5.26,0,0,1,.3,3.76c-0.24.74-1.67,1.44-2.62,1.52a29.43,29.43,0,0,1-4.83-.39c-2.18-.18-4,0.24-5.78,3.43A18.56,18.56,0,0,0,458.71,292.19Z" transform="translate(-165.21 -44.64)"/><path d="M399.3,320.57q0.38-23.86.73-47.73c0-1.71.75-2.54,2.39-2.46a10.27,10.27,0,0,1,3.83.56c1.59,0.76,1.58,2.54,1.61,4.09,0.13,7.32.2,14.64,0.35,22,0.17,8.38.41,16.75,0.63,25.12s0.44,16.76.71,25.14c0.12,3.71.4,7.42,0.55,11.13a1.41,1.41,0,0,0,1.53,1.62c3.59,0.3,7.17.78,10.76,1.1a1.4,1.4,0,0,1,1.49,1.79,26.71,26.71,0,0,0,0,4c0.13,1.58-.43,2.2-2,2.24-3.25.09-6.49,0.31-9.74,0.5-4,.24-7.9.47-11.85,0.78-1.42.11-1.8-.46-1.78-1.8q0.32-17.48.55-35c0.06-4.37,0-8.73,0-13.1h0.28Z" transform="translate(-165.21 -44.64)"/><path d="M363.07,272.89a17.1,17.1,0,0,1,3.26-.84c4.82-.2,9.65-0.26,14.48-0.43,1.45-.05,2.88-0.33,4.33-0.43a13,13,0,0,1,2.08.24c-1.17,2.1-2.15,3.93-3.2,5.72-1.68,2.87-3.42,5.71-5.07,8.59a3.34,3.34,0,0,0-.27,1.7c0.19,5.46.43,10.93,0.63,16.39,0.08,2.33,0,4.66.15,7,0.24,4.81.56,9.61,0.84,14.42q0.82,14,1.64,27.94a9.61,9.61,0,0,0,4.25,7.38c3.15,2.32,6.33,4.62,9.5,6.92l-0.07.51a6.81,6.81,0,0,1-1.6.37q-14.51-.19-29-0.45a15.39,15.39,0,0,1-2.23-.43l7.7-8.14a6.63,6.63,0,0,0,2.08-4.74c0-8.39.2-16.79,0.11-25.18-0.09-8.09-.42-16.18-0.68-24.26-0.21-6.39-.21-12.8-0.84-19.15-0.22-2.28-1.83-4.52-3.11-6.58S364.94,275.33,363.07,272.89Z" transform="translate(-165.21 -44.64)"/><path d="M268.94,322.46q-0.29,20.72-.59,41.44a3.7,3.7,0,0,1-5.32,3.27,1.14,1.14,0,0,1-.57-0.77c-0.35-3.69-.89-7.39-0.94-11.08-0.07-6.06.23-12.12,0.28-18.17,0.06-8.33.05-16.65,0-25,0-9.66,0-19.33-.24-29-0.1-3.55-.53-5.22-4.64-5.85a34.5,34.5,0,0,1-6.65-2.22,2,2,0,0,1-1.14-2.47,1.72,1.72,0,0,1,1.88-1.61c4.65-.24,9.29-0.59,13.93-0.89s9.46-.65,14.19-0.86a4.11,4.11,0,0,1,2.82.82,2.15,2.15,0,0,1-.67,3.51,23.28,23.28,0,0,1-4.73,2c-1.75.53-3.65,0.63-5.36,1.24a2.85,2.85,0,0,0-1.41,2.08c-0.24,2.72-.28,5.47-0.29,8.21q0,17.66,0,35.32h-0.58Z" transform="translate(-165.21 -44.64)"/></svg>