<svg xmlns="http://www.w3.org/2000/svg" viewBox="0 0 1252.36 132.73"><defs><style>.cls-1{fill:#fff;}.cls-1,.cls-2{stroke:#000;stroke-miterlimit:10;stroke-width:4px;}.cls-2{fill:none;}</style></defs><title>Asset 2</title><g id="Layer_2" data-name="Layer 2"><g id="Layer_1-2" data-name="Layer 1"><path class="cls-1" d="M316.53,129.73a12,12,0,0,1,0-17l0,0L423.73,5.53a12,12,0,0,1,17,0l0,0,107.1,107.2a12,12,0,0,1,0,17l0,0Z"/><line class="cls-2" x1="388.53" y1="41.44" x2="451.93" y2="41.44"/><path class="cls-1" d="M561.53,130.73a12,12,0,0,1,0-17l0,0L668.73,6.53a12,12,0,0,1,17,0l0,0,107.1,107.2a12,12,0,0,1,0,17l0,0Z"/><line class="cls-2" x1="633.53" y1="42.44" x2="696.92" y2="42.44"/><path class="cls-1" d="M658.53,129.73a12,12,0,0,1,0-17l0,0L765.73,5.53a12,12,0,0,1,17,0l0,0,107.1,107.2a12,12,0,0,1,0,17l0,0Z"/><line class="cls-2" x1="730.53" y1="41.44" x2="793.92" y2="41.44"/><path class="cls-1" d="M205.53,130.73a12,12,0,0,1,0-17l0,0L312.73,6.53a12,12,0,0,1,17,0l0,0,107.1,107.2a12,12,0,0,1,0,17l0,0Z"/><line class="cls-2" x1="277.53" y1="42.44" x2="340.93" y2="42.44"/><path class="cls-1" d="M423.53,130.73a12,12,0,0,1,0-17l0,0L530.73,6.53a12,12,0,0,1,17,0l0,0,107.1,107.2a12,12,0,0,1,0,17l0,0Z"/><line class="cls-2" x1="495.53" y1="42.44" x2="558.92" y2="42.44"/><path class="cls-1" d="M850.53,130.73a12,12,0,0,1,0-17l0,0L957.73,6.53a12,12,0,0,1,17,0l0,0,107.1,107.2a12,12,0,0,1,0,17l0,0Z"/><line class="cls-2" x1="922.53" y1="42.44" x2="985.92" y2="42.44"/><path class="cls-1" d="M767.53,130.73a12,12,0,0,1,0-17l0,0L874.73,6.53a12,12,0,0,1,17,0l0,0,107.1,107.2a12,12,0,0,1,0,17l0,0Z"/><line class="cls-2" x1="839.53" y1="42.44" x2="902.92" y2="42.44"/><path class="cls-1" d="M1015.53,130.73a12,12,0,0,1,0-17l0,0,107.2-107.2a12,12,0,0,1,17,0l0,0,107.1,107.2a12,12,0,0,1,0,17l0,0Z"/><path class="cls-1" d="M5.53,130.73a12,12,0,0,1,0-17l0,0L112.73,6.53a12,12,0,0,1,17,0l0,0,107.1,107.2a12,12,0,0,1,0,17l0,0Z"/><line class="cls-2" x1="77.52" y1="41.44" x2="140.93" y2="41.44"/><line class="cls-2" x1="1087.53" y1="42.44" x2="1150.92" y2="42.44"/><path class="cls-1" d="M95.52,130.73a12,12,0,0,1,0-17l0,0L202.72,6.53a12,12,0,0,1,17,0l0,0,107.1,107.2a12,12,0,0,1,0,17l0,0Z"/><line class="cls-2" x1="167.52" y1="42.44" x2="230.93" y2="42.44"/></g></g></svg>