<svg xmlns="http://www.w3.org/2000/svg" viewBox="0 0 865.37 132.73"><defs><style>.cls-1{fill:#fff;}.cls-1,.cls-2{stroke:#000;stroke-miterlimit:10;stroke-width:4px;}.cls-2{fill:none;}</style></defs><title>Asset 1</title><g id="Layer_2" data-name="Layer 2"><g id="Layer_1-2" data-name="Layer 1"><path class="cls-1" d="M471.54,129.73a12,12,0,0,1,0-17l0,0L578.74,5.53a12,12,0,0,1,17,0l0,0,107.1,107.2a12,12,0,0,1,0,17l0,0Z"/><line class="cls-2" x1="543.54" y1="41.44" x2="606.93" y2="41.44"/><path class="cls-1" d="M115.54,129.73a12,12,0,0,1,0-17l0,0L222.74,5.53a12,12,0,0,1,17,0l0,0,107.1,107.2a12,12,0,0,1,0,17l0,0Z"/><line class="cls-2" x1="187.54" y1="39.44" x2="250.94" y2="39.44"/><path class="cls-1" d="M284.54,129.73a12,12,0,0,1,0-17l0,0L391.74,5.53a12,12,0,0,1,17,0l0,0,107.1,107.2a12,12,0,0,1,0,17l0,0Z"/><line class="cls-2" x1="356.54" y1="41.44" x2="419.93" y2="41.44"/><path class="cls-1" d="M628.54,130.73a12,12,0,0,1,0-17l0,0L735.74,6.53a12,12,0,0,1,17,0l0,0,107.1,107.2a12,12,0,0,1,0,17l0,0Z"/><line class="cls-2" x1="700.54" y1="42.44" x2="763.93" y2="42.44"/><path class="cls-1" d="M5.53,129.73a12,12,0,0,1,0-17l0,0L112.73,5.53a12,12,0,0,1,17,0l0,0,107.1,107.2a12,12,0,0,1,0,17l0,0Z"/><line class="cls-2" x1="77.53" y1="41.44" x2="140.94" y2="41.44"/></g></g></svg>