<svg xmlns="http://www.w3.org/2000/svg" viewBox="0 0 516.08 228.4"><defs><style>.cls-1{fill:#231f20;}</style></defs><title>Asset 1</title><g id="Layer_2" data-name="Layer 2"><g id="Layer_1-2" data-name="Layer 1"><path class="cls-1" d="M139.26,22.27V33.41h24.59V55.68H139.26V89.09H117V0h55.68V22.27ZM169.88,2.78H119.77V86.3h16.7V52.9h24.59V36.19H136.47V19.49h33.41Z"/><path class="cls-1" d="M199.69,89.09H177.42V0h22.27ZM180.2,2.78V86.3h16.7V2.78Z"/><path class="cls-1" d="M251,44.54q5.68,10.67,12,22.27t12,22.27H249.8l-10.21-21q-2.55,5.22-5.1,10.56t-5.1,10.44H204.21l24-44.54q-5.69-10.67-12-22.27T204.21,0h25.06l10.32,21q2.55-5.22,5.1-10.56T249.8,0H275Zm.58-41.76q-1.39,2.78-2.9,5.92l-3.07,6.38q-1.57,3.25-3.07,6.32t-2.9,5.86L227.53,2.78H209q5.68,10.56,11.31,20.88t11.19,20.88L209,86.3h18.56l12.06-24.48L251.54,86.3h18.68q-5.68-10.55-11.31-20.88T247.71,44.54l22.5-41.76Z"/><path class="cls-1" d="M298.75,22.27V33.41h24.59V55.68H298.75V66.82h33.41V89.09H276.48V0h55.68V22.27ZM329.38,2.78H279.27V86.3h50.11V69.6H296V52.9h24.59V36.19H296V19.49h33.41Z"/><path class="cls-1" d="M397.93,44.54a70.09,70.09,0,0,1-2,17.05,38.07,38.07,0,0,1-6.73,14.21,33.18,33.18,0,0,1-12.24,9.69q-7.54,3.59-18.56,3.6H337V0h18.79a46.43,46.43,0,0,1,18.33,3.36,36.28,36.28,0,0,1,13.17,9.34,39.7,39.7,0,0,1,7.95,14.15A56.74,56.74,0,0,1,397.93,44.54Zm-2.78,0A53.29,53.29,0,0,0,392.65,28a37,37,0,0,0-7.42-13.22A34.45,34.45,0,0,0,372.93,6a42.76,42.76,0,0,0-17.11-3.19h-16V86.3h18.56q10.21,0,17.23-3.36A30.54,30.54,0,0,0,387,73.83a36.65,36.65,0,0,0,6.26-13.28A64.83,64.83,0,0,0,395.15,44.54Z"/><path class="cls-1" d="M60.78,206.94a19.78,19.78,0,0,1-2.55,8.29A21.7,21.7,0,0,1,52.08,222a31,31,0,0,1-9.57,4.58,43.92,43.92,0,0,1-12.59,1.68,34.73,34.73,0,0,1-10.32-1.51,29.42,29.42,0,0,1-8.76-4.35,27.84,27.84,0,0,1-6.67-7A30.78,30.78,0,0,1,0,206.25L19.84,198,21,200.56q-.12,0,.64,1a14.06,14.06,0,0,0,2.15,2.26A16.58,16.58,0,0,0,26.91,206a5.91,5.91,0,0,0,3.6.7,8.2,8.2,0,0,0,1.62-.41,4.42,4.42,0,0,0,1.51-.93,4.75,4.75,0,0,0,1.1-1.51,4.17,4.17,0,0,0,.29-2.15,5.22,5.22,0,0,0-1.45-3,21,21,0,0,0-3.65-3.13l-4.41-2.84-4.06-2.61q-4.41-2.67-8.06-5.16a36.41,36.41,0,0,1-6.32-5.39A20.71,20.71,0,0,1,3,172.9a25.38,25.38,0,0,1-1.45-9.11,21.94,21.94,0,0,1,2.44-10.56,23.22,23.22,0,0,1,6.5-7.6,30,30,0,0,1,9.28-4.7,38.89,38.89,0,0,1,10.79-1.74,32.73,32.73,0,0,1,11.83,2,27.52,27.52,0,0,1,8.58,5.1,23.85,23.85,0,0,1,5.45,7.08,26.19,26.19,0,0,1,2.55,7.77l-19.6,7.77a20.16,20.16,0,0,0-1-3,16.13,16.13,0,0,0-1.74-3.07A8.83,8.83,0,0,0,34,160.43a6.3,6.3,0,0,0-3.36-.93,5.32,5.32,0,0,0-3.31,1.1,3.89,3.89,0,0,0-1.45,3.31A4.26,4.26,0,0,0,27.55,167q1.68,1.51,5.16,4.06H32.6q5.45,3,10.56,6.15a47.28,47.28,0,0,1,9,7.08,32.41,32.41,0,0,1,6.26,9,27.67,27.67,0,0,1,2.38,11.89v1.74ZM58,205.2a25,25,0,0,0-2.26-11,29.44,29.44,0,0,0-6.09-8.41,50.09,50.09,0,0,0-8.76-6.73q-4.93-3-10.15-5.92a58.84,58.84,0,0,1-5.8-4.7,6.1,6.1,0,0,1-1.86-4.58,6.4,6.4,0,0,1,2.32-5.39,8.3,8.3,0,0,1,5.22-1.8,9.93,9.93,0,0,1,4.12.81,10.94,10.94,0,0,1,3.07,2A12.18,12.18,0,0,1,40,162.28a16,16,0,0,1,1.33,2.9l7.19-2.9,7.31-2.9a22.33,22.33,0,0,0-2.49-6.26,20.25,20.25,0,0,0-4.87-5.63,24.1,24.1,0,0,0-7.54-4A32.49,32.49,0,0,0,30.51,142a35.89,35.89,0,0,0-9.8,1.57,27.36,27.36,0,0,0-8.35,4.18,20.84,20.84,0,0,0-5.86,6.73,19,19,0,0,0-2.2,9.34,21.22,21.22,0,0,0,1.39,8.12A20.62,20.62,0,0,0,9.57,178a34.11,34.11,0,0,0,5.86,5q3.36,2.32,7.42,4.76l8.7,5.45a19.32,19.32,0,0,1,4.58,3.94,7.78,7.78,0,0,1,1.16,7.71,7.21,7.21,0,0,1-1.62,2.38,8.23,8.23,0,0,1-2.26,1.51,7.74,7.74,0,0,1-2.44.7,8.41,8.41,0,0,1-4.12-.58,14.64,14.64,0,0,1-3.65-2.09,15.06,15.06,0,0,1-2.73-2.73,10.49,10.49,0,0,1-1.57-2.73l-15.43,6.5a23.62,23.62,0,0,0,9.74,13,29.75,29.75,0,0,0,16.7,4.64A39.43,39.43,0,0,0,41.24,224a29.31,29.31,0,0,0,8.64-4.06,20.28,20.28,0,0,0,5.68-6A16.66,16.66,0,0,0,58,206.71Z"/><path class="cls-1" d="M127.37,161.47h-19.6v66.81H85.49V161.47H65.89V139.2h61.48ZM68.67,142v16.7h19.6V225.5H105V158.69h19.6V142Z"/><path class="cls-1" d="M162.28,228.29l-9.51-22.74v22.74H130.5V139.2h27.72a31.35,31.35,0,0,1,13,2.38,21.89,21.89,0,0,1,8.35,6.38,24.67,24.67,0,0,1,4.47,9.28,45.12,45.12,0,0,1,1.33,11.08,27,27,0,0,1-1.62,9.63,29.48,29.48,0,0,1-4,7.42,27.66,27.66,0,0,1-5,5.16,19.37,19.37,0,0,1-4.7,2.84q4.29,8.35,9,17.46t8.87,17.46Zm3.48-37.24a10.48,10.48,0,0,0,4.35-1.51,22.61,22.61,0,0,0,5.63-4.41,27.12,27.12,0,0,0,4.81-7.13,22.15,22.15,0,0,0,2-9.69,42.56,42.56,0,0,0-1.16-10.09,21.52,21.52,0,0,0-4-8.35,20,20,0,0,0-7.54-5.74A28.37,28.37,0,0,0,158.11,142H133.28V225.5H150q0-6.73.12-13.69t.12-13.57l2.44-.46,11.6,27.72h19Z"/><path class="cls-1" d="M256.24,192.44A48.52,48.52,0,0,1,254.15,207a31.67,31.67,0,0,1-6.21,11.43,27.73,27.73,0,0,1-10.21,7.37,34.25,34.25,0,0,1-14.09,2.49q-8.93.11-15.08-2.78a27.15,27.15,0,0,1-10-7.89,31.82,31.82,0,0,1-5.63-11.54,52.9,52.9,0,0,1-1.74-13.63V139.08H214v51.85a23.72,23.72,0,0,0,.58,5.39,15,15,0,0,0,1.74,4.41,8.64,8.64,0,0,0,3,3,8.46,8.46,0,0,0,4.41,1.1,8.17,8.17,0,0,0,4.35-1.1,8.85,8.85,0,0,0,3-3,15.07,15.07,0,0,0,1.74-4.41,23.83,23.83,0,0,0,.58-5.39V139.08h22.85Zm-20.07-50.58v49.07a27.47,27.47,0,0,1-.75,6.55,16.76,16.76,0,0,1-2.26,5.34,10.81,10.81,0,0,1-3.83,3.54,11.38,11.38,0,0,1-5.57,1.28,11.71,11.71,0,0,1-5.63-1.28,10.64,10.64,0,0,1-3.89-3.54,16.68,16.68,0,0,1-2.26-5.34,27.37,27.37,0,0,1-.75-6.55V141.87H193.95v50.58a48.39,48.39,0,0,0,1.62,12.64,29.82,29.82,0,0,0,5.16,10.61A24.62,24.62,0,0,0,210,223a31.22,31.22,0,0,0,13.8,2.55,30.24,30.24,0,0,0,12.82-2.32,25.71,25.71,0,0,0,9.28-6.84,29.59,29.59,0,0,0,5.68-10.5,44.5,44.5,0,0,0,1.91-13.4V141.87Z"/><path class="cls-1" d="M327.58,211.35a41.35,41.35,0,0,1-12.82,11.89,38.15,38.15,0,0,1-8.7,3.77,34.75,34.75,0,0,1-9.92,1.39,35.69,35.69,0,0,1-14.21-2.67,29.51,29.51,0,0,1-10.44-7.37,32.33,32.33,0,0,1-6.5-11.25,47.82,47.82,0,0,1-2.49-14.21V175a43.39,43.39,0,0,1,2.15-13.69,32.92,32.92,0,0,1,6.44-11.43,31.14,31.14,0,0,1,10.56-7.83,34.49,34.49,0,0,1,14.62-2.9,35,35,0,0,1,11.83,2.15,28.46,28.46,0,0,1,7.89,4.58,24.79,24.79,0,0,1,5,5.63q1.85,3,3,5.28a10,10,0,0,0,.81,1.51q.58.93,1.28,2l-18.56,12.3q-.58-1.39-1.39-3.13a14.55,14.55,0,0,0-2.09-3.25,11.38,11.38,0,0,0-3.13-2.55,9.11,9.11,0,0,0-4.52-1,10.33,10.33,0,0,0-8.24,3.48q-3,3.48-3,9.28v16.82a13.48,13.48,0,0,0,3.42,9.51,11.61,11.61,0,0,0,8.64,3.83,10.91,10.91,0,0,0,5.68-1.1,7.84,7.84,0,0,0,3.25-3.19v-2.44H297V179.34h30.62Zm-27.84-29.23V196h9.16v6.15a11.05,11.05,0,0,1-4.23,4.52,13.52,13.52,0,0,1-7.48,1.62,14.2,14.2,0,0,1-5.86-1.22,14.69,14.69,0,0,1-7.89-8.47,18.26,18.26,0,0,1-1.1-6.44V175.39q0-7,3.83-11.25a13,13,0,0,1,10.21-4.29,13.78,13.78,0,0,1,5,.81,11.78,11.78,0,0,1,3.54,2.09,12.41,12.41,0,0,1,2.38,2.78,21.11,21.11,0,0,1,1.51,2.9q3.59-2.32,6.61-4.41t6.73-4.52l-.7-1.51a33.83,33.83,0,0,0-2.9-4.64,26.23,26.23,0,0,0-4.81-4.93,30.15,30.15,0,0,0-7.25-4.18A33.45,33.45,0,0,0,296.15,142,31.55,31.55,0,0,0,283,144.83a29.39,29.39,0,0,0-9.69,7.25,31,31,0,0,0-6,10.44,38.33,38.33,0,0,0-2,12.53v17.86a46,46,0,0,0,2.84,12.41,34.45,34.45,0,0,0,6.21,10.44,29.57,29.57,0,0,0,9.4,7.19,28.14,28.14,0,0,0,12.53,2.67,31.56,31.56,0,0,0,9-1.28A36.13,36.13,0,0,0,313.2,221a37.17,37.17,0,0,0,6.55-4.81,34.54,34.54,0,0,0,5-5.74v-28.3Z"/><path class="cls-1" d="M400.89,211.35a41.35,41.35,0,0,1-12.82,11.89,38.15,38.15,0,0,1-8.7,3.77,34.75,34.75,0,0,1-9.92,1.39,35.69,35.69,0,0,1-14.21-2.67,29.51,29.51,0,0,1-10.44-7.37,32.33,32.33,0,0,1-6.5-11.25,47.82,47.82,0,0,1-2.49-14.21V175A43.39,43.39,0,0,1,338,161.36a32.92,32.92,0,0,1,6.44-11.43A31.14,31.14,0,0,1,355,142.1a34.49,34.49,0,0,1,14.62-2.9,35,35,0,0,1,11.83,2.15,28.46,28.46,0,0,1,7.89,4.58,24.79,24.79,0,0,1,5,5.63q1.85,3,3,5.28a10,10,0,0,0,.81,1.51q.58.93,1.28,2l-18.56,12.3q-.58-1.39-1.39-3.13a14.55,14.55,0,0,0-2.09-3.25,11.38,11.38,0,0,0-3.13-2.55,9.11,9.11,0,0,0-4.52-1,10.33,10.33,0,0,0-8.24,3.48q-3,3.48-3,9.28v16.82a13.48,13.48,0,0,0,3.42,9.51,11.61,11.61,0,0,0,8.64,3.83,10.91,10.91,0,0,0,5.68-1.1,7.84,7.84,0,0,0,3.25-3.19v-2.44h-9.16V179.34h30.62Zm-27.84-29.23V196h9.16v6.15a11.05,11.05,0,0,1-4.23,4.52,13.52,13.52,0,0,1-7.48,1.62,14.2,14.2,0,0,1-5.86-1.22,14.69,14.69,0,0,1-7.89-8.47,18.26,18.26,0,0,1-1.1-6.44V175.39q0-7,3.83-11.25a13,13,0,0,1,10.21-4.29,13.78,13.78,0,0,1,5,.81,11.78,11.78,0,0,1,3.54,2.09,12.41,12.41,0,0,1,2.38,2.78,21.11,21.11,0,0,1,1.51,2.9q3.59-2.32,6.61-4.41t6.73-4.52l-.7-1.51a33.83,33.83,0,0,0-2.9-4.64,26.23,26.23,0,0,0-4.81-4.93,30.15,30.15,0,0,0-7.25-4.18A33.45,33.45,0,0,0,369.46,142a31.55,31.55,0,0,0-13.17,2.84,29.39,29.39,0,0,0-9.69,7.25,31,31,0,0,0-6,10.44,38.33,38.33,0,0,0-2,12.53v17.86a46,46,0,0,0,2.84,12.41,34.45,34.45,0,0,0,6.21,10.44A29.57,29.57,0,0,0,357,223a28.14,28.14,0,0,0,12.53,2.67,31.56,31.56,0,0,0,9-1.28,36.13,36.13,0,0,0,7.89-3.36,37.17,37.17,0,0,0,6.55-4.81,34.54,34.54,0,0,0,5-5.74v-28.3Z"/><path class="cls-1" d="M454.25,206v22.27H408.9V139.2h22.27V206Zm-25.87-64h-16.7V225.5h39.79V208.8H428.38Z"/><path class="cls-1" d="M482.67,161.47v11.14h24.59v22.27H482.67V206h33.41v22.27H460.4V139.2h55.68v22.27ZM513.29,142H463.18V225.5h50.11V208.8H479.89V192.1h24.59v-16.7H479.89v-16.7h33.41Z"/></g></g></svg>